# xmcd CD database file
#
# Track frame offsets:
#	150
#	17400
#	33975
#	50400
#	62175
#	90825
#	104700
#	118800
#	139200
#	158325
#	171375
#	188250
#
# Disc length: 2693 seconds
#
# Revision: 0
# Processed by: cddbd v1.4PL0 Copyright (c) Steve Scherf et al.
# Submitted via: Feurio! 1.65 - http://www.feurio.com
#
DISCID=930a830c
DTITLE=Acoustic Blues Trio - Blues Party
DYEAR=1999
DGENRE=blues
TTITLE0=Let Me Hear You
TTITLE1=Get Myself Together
TTITLE2=Need Your Love
TTITLE3=Till The Break Of Dawn
TTITLE4=Railway Blues
TTITLE5=Train Just Keeps On Rollin'
TTITLE6=Mister B.
TTITLE7=Feel Alright
TTITLE8=Love
TTITLE9=Blowin' Away
TTITLE10=The One I Want
TTITLE11=Found My Cure
EXTD=LC 2704\r\nRüggeberg - Scheer/ Woltmann
EXTT0=
EXTT1=
EXTT2=
EXTT3=
EXTT4=
EXTT5=
EXTT6=
EXTT7=
EXTT8=
EXTT9=
EXTT10=
EXTT11=
PLAYORDER=
